<svg id="レイヤー_1" data-name="レイヤー 1" xmlns="http://www.w3.org/2000/svg" viewBox="0 0 113.39 113.39"><defs><style>.cls-1{fill:#f2b6c6;}.cls-2{fill:#d9487d;}</style></defs><polygon class="cls-1" points="36.24 20.43 45.84 37.05 66.67 37.05 76.27 20.43 36.24 20.43"/><polygon class="cls-2" points="76.47 17.93 66.67 0.96 45.84 0.96 36.04 17.93 76.47 17.93"/><polygon class="cls-2" points="110.42 38.41 100 20.36 80.72 20.36 100.78 55.1 110.42 38.41"/><polygon class="cls-2" points="68.74 38.41 79.16 56.45 98.67 56.45 78.5 21.52 68.74 38.41"/><polygon class="cls-2" points="78.6 93.93 98.85 58.85 79.19 58.85 68.76 76.9 78.6 93.93"/><polygon class="cls-2" points="100.88 60.34 80.9 94.95 100.02 94.95 110.44 76.9 100.88 60.34"/><polygon class="cls-1" points="76.52 95.2 66.73 78.26 45.9 78.26 36.12 95.2 76.52 95.2"/><polygon class="cls-2" points="36.28 97.7 45.9 114.35 66.73 114.35 76.35 97.7 36.28 97.7"/><polygon class="cls-1" points="43.83 76.9 33.41 58.85 13.72 58.85 33.98 93.95 43.83 76.9"/><polygon class="cls-2" points="2.15 76.9 12.57 94.95 31.67 94.95 11.7 60.36 2.15 76.9"/><polygon class="cls-1" points="34.08 21.52 13.9 56.45 33.41 56.45 43.83 38.41 34.08 21.52"/><polygon class="cls-2" points="11.79 55.1 31.85 20.36 12.57 20.36 2.15 38.41 11.79 55.1"/></svg>